<mxfile host="app.diagrams.net" agent="Mozilla/5.0 (Macintosh; Intel Mac OS X 10_15_7) AppleWebKit/537.36 (KHTML, like Gecko) Chrome/128.0.0.0 Safari/537.36" version="24.9.1">
  <diagram name="Page-1" id="bsOLxiMiNHzvZktkI300">
    <mxGraphModel dx="3235" dy="1943" grid="1" gridSize="10" guides="1" tooltips="1" connect="1" arrows="1" fold="1" page="1" pageScale="1" pageWidth="850" pageHeight="1100" math="0" shadow="0">
      <root>
        <mxCell id="0" />
        <mxCell id="1" parent="0" />
        <mxCell id="K7ECoLbRDUBTK7f3nJPs-22" style="edgeStyle=orthogonalEdgeStyle;rounded=0;orthogonalLoop=1;jettySize=auto;html=1;entryX=1;entryY=0.25;entryDx=0;entryDy=0;fontSize=12;shape=link;fillColor=#fad9d5;strokeColor=#ae4132;" edge="1" parent="1" source="rfiSgZxfOolpitJeeGe8-1" target="rfiSgZxfOolpitJeeGe8-5">
          <mxGeometry relative="1" as="geometry">
            <Array as="points">
              <mxPoint x="230" y="795" />
              <mxPoint x="230" y="371" />
            </Array>
          </mxGeometry>
        </mxCell>
        <mxCell id="K7ECoLbRDUBTK7f3nJPs-23" value="8. Perform Responsive Action" style="edgeLabel;html=1;align=center;verticalAlign=middle;resizable=0;points=[];fontSize=12;" vertex="1" connectable="0" parent="K7ECoLbRDUBTK7f3nJPs-22">
          <mxGeometry x="-0.1397" y="1" relative="1" as="geometry">
            <mxPoint as="offset" />
          </mxGeometry>
        </mxCell>
        <mxCell id="rfiSgZxfOolpitJeeGe8-1" value="Windows 10 Client&lt;div&gt;Wazuh Agent&lt;/div&gt;&lt;div&gt;&lt;br&gt;&lt;/div&gt;" style="verticalAlign=top;verticalLabelPosition=bottom;labelPosition=center;align=center;html=1;outlineConnect=0;fillColor=#fad9d5;strokeColor=#ae4132;gradientDirection=north;strokeWidth=2;shape=mxgraph.networks.pc;" parent="1" vertex="1">
          <mxGeometry x="360" y="760" width="100" height="70" as="geometry" />
        </mxCell>
        <mxCell id="K7ECoLbRDUBTK7f3nJPs-1" value="" style="edgeStyle=orthogonalEdgeStyle;rounded=0;orthogonalLoop=1;jettySize=auto;html=1;fontSize=12;shape=link;" edge="1" parent="1" source="rfiSgZxfOolpitJeeGe8-2" target="rfiSgZxfOolpitJeeGe8-3">
          <mxGeometry relative="1" as="geometry">
            <Array as="points">
              <mxPoint x="410" y="470" />
              <mxPoint x="410" y="470" />
            </Array>
          </mxGeometry>
        </mxCell>
        <mxCell id="rfiSgZxfOolpitJeeGe8-2" value="router&lt;div&gt;&lt;br&gt;&lt;/div&gt;" style="image;aspect=fixed;html=1;points=[];align=center;fontSize=12;image=img/lib/azure2/networking/Virtual_Router.svg;" parent="1" vertex="1">
          <mxGeometry x="376" y="530" width="68" height="68" as="geometry" />
        </mxCell>
        <mxCell id="K7ECoLbRDUBTK7f3nJPs-2" style="edgeStyle=none;curved=1;rounded=0;orthogonalLoop=1;jettySize=auto;html=1;fontSize=12;shape=link;" edge="1" parent="1" source="rfiSgZxfOolpitJeeGe8-3" target="rfiSgZxfOolpitJeeGe8-5">
          <mxGeometry relative="1" as="geometry">
            <mxPoint x="303.1862627695017" y="373.9397378520092" as="sourcePoint" />
            <mxPoint x="79.99996447988556" y="378.51754740089575" as="targetPoint" />
            <Array as="points">
              <mxPoint x="180" y="386" />
            </Array>
          </mxGeometry>
        </mxCell>
        <mxCell id="K7ECoLbRDUBTK7f3nJPs-3" value="2. Receive Events" style="edgeLabel;html=1;align=center;verticalAlign=middle;resizable=0;points=[];fontSize=12;" vertex="1" connectable="0" parent="K7ECoLbRDUBTK7f3nJPs-2">
          <mxGeometry x="-0.1107" y="1" relative="1" as="geometry">
            <mxPoint as="offset" />
          </mxGeometry>
        </mxCell>
        <mxCell id="K7ECoLbRDUBTK7f3nJPs-6" style="edgeStyle=orthogonalEdgeStyle;rounded=0;orthogonalLoop=1;jettySize=auto;html=1;entryX=0.5;entryY=1;entryDx=0;entryDy=0;fontSize=12;shape=link;fillColor=#d5e8d4;strokeColor=#82b366;" edge="1" parent="1" source="rfiSgZxfOolpitJeeGe8-3" target="rfiSgZxfOolpitJeeGe8-6">
          <mxGeometry relative="1" as="geometry">
            <Array as="points">
              <mxPoint x="410" y="230" />
              <mxPoint x="410" y="230" />
            </Array>
          </mxGeometry>
        </mxCell>
        <mxCell id="K7ECoLbRDUBTK7f3nJPs-10" value="4.Enrich IOCS" style="edgeLabel;html=1;align=center;verticalAlign=middle;resizable=0;points=[];fontSize=12;" vertex="1" connectable="0" parent="K7ECoLbRDUBTK7f3nJPs-6">
          <mxGeometry x="-0.0652" y="5" relative="1" as="geometry">
            <mxPoint x="-1" as="offset" />
          </mxGeometry>
        </mxCell>
        <mxCell id="K7ECoLbRDUBTK7f3nJPs-15" value="7.Send &amp;amp; Receive Email" style="edgeStyle=none;curved=1;rounded=0;orthogonalLoop=1;jettySize=auto;html=1;fontSize=12;fillColor=#ffe6cc;strokeColor=#d79b00;shape=link;" edge="1" parent="1" source="rfiSgZxfOolpitJeeGe8-3" target="rfiSgZxfOolpitJeeGe8-10">
          <mxGeometry relative="1" as="geometry" />
        </mxCell>
        <mxCell id="K7ECoLbRDUBTK7f3nJPs-19" style="rounded=0;orthogonalLoop=1;jettySize=auto;html=1;entryX=0;entryY=1;entryDx=0;entryDy=0;fontSize=12;shape=link;fillColor=#fad9d5;strokeColor=#ae4132;" edge="1" parent="1" source="rfiSgZxfOolpitJeeGe8-3" target="rfiSgZxfOolpitJeeGe8-6">
          <mxGeometry relative="1" as="geometry">
            <Array as="points">
              <mxPoint x="320" y="230" />
            </Array>
          </mxGeometry>
        </mxCell>
        <mxCell id="rfiSgZxfOolpitJeeGe8-3" value="Internet&lt;div&gt;&lt;br&gt;&lt;/div&gt;" style="image;aspect=fixed;perimeter=ellipsePerimeter;html=1;align=center;shadow=0;dashed=0;spacingTop=3;image=img/lib/active_directory/internet_cloud.svg;" parent="1" vertex="1">
          <mxGeometry x="352.5" y="350" width="111.11" height="70" as="geometry" />
        </mxCell>
        <mxCell id="K7ECoLbRDUBTK7f3nJPs-11" style="rounded=0;orthogonalLoop=1;jettySize=auto;html=1;fontSize=12;shape=link;" edge="1" parent="1">
          <mxGeometry relative="1" as="geometry">
            <mxPoint x="676.5000136930794" y="363.7999999999998" as="sourcePoint" />
            <mxPoint x="444" y="70.00000000000004" as="targetPoint" />
          </mxGeometry>
        </mxCell>
        <mxCell id="K7ECoLbRDUBTK7f3nJPs-12" value="5. Send Alerts" style="edgeLabel;html=1;align=center;verticalAlign=middle;resizable=0;points=[];fontSize=12;" vertex="1" connectable="0" parent="K7ECoLbRDUBTK7f3nJPs-11">
          <mxGeometry x="-0.0266" relative="1" as="geometry">
            <mxPoint as="offset" />
          </mxGeometry>
        </mxCell>
        <mxCell id="rfiSgZxfOolpitJeeGe8-4" value="&lt;div style=&quot;text-align: start;&quot;&gt;The Hive&lt;/div&gt;" style="image;aspect=fixed;perimeter=ellipsePerimeter;html=1;align=center;shadow=0;dashed=0;spacingTop=3;image=img/lib/active_directory/internet_cloud.svg;" parent="1" vertex="1">
          <mxGeometry x="620" y="360" width="115" height="72.45" as="geometry" />
        </mxCell>
        <mxCell id="K7ECoLbRDUBTK7f3nJPs-4" style="edgeStyle=none;curved=1;rounded=0;orthogonalLoop=1;jettySize=auto;html=1;entryX=0;entryY=0.75;entryDx=0;entryDy=0;fontSize=12;shape=link;fillColor=#dae8fc;strokeColor=#6c8ebf;" edge="1" parent="1" source="rfiSgZxfOolpitJeeGe8-5" target="rfiSgZxfOolpitJeeGe8-6">
          <mxGeometry relative="1" as="geometry" />
        </mxCell>
        <mxCell id="K7ECoLbRDUBTK7f3nJPs-8" value="3.Send Alerts" style="edgeLabel;html=1;align=center;verticalAlign=middle;resizable=0;points=[];fontSize=12;" vertex="1" connectable="0" parent="K7ECoLbRDUBTK7f3nJPs-4">
          <mxGeometry x="-0.1089" y="-1" relative="1" as="geometry">
            <mxPoint as="offset" />
          </mxGeometry>
        </mxCell>
        <mxCell id="rfiSgZxfOolpitJeeGe8-5" value="&lt;div style=&quot;text-align: start;&quot;&gt;Wazuh Manager&lt;/div&gt;&lt;div style=&quot;text-align: start;&quot;&gt;&lt;br&gt;&lt;/div&gt;" style="image;aspect=fixed;perimeter=ellipsePerimeter;html=1;align=center;shadow=0;dashed=0;spacingTop=3;image=img/lib/active_directory/internet_cloud.svg;" parent="1" vertex="1">
          <mxGeometry x="-10" y="350" width="115" height="72.45" as="geometry" />
        </mxCell>
        <mxCell id="K7ECoLbRDUBTK7f3nJPs-13" style="edgeStyle=orthogonalEdgeStyle;rounded=0;orthogonalLoop=1;jettySize=auto;html=1;fontSize=12;shape=link;fillColor=#ffe6cc;strokeColor=#d79b00;entryX=1;entryY=0.5;entryDx=0;entryDy=0;" edge="1" parent="1" source="rfiSgZxfOolpitJeeGe8-6" target="rfiSgZxfOolpitJeeGe8-3">
          <mxGeometry relative="1" as="geometry">
            <mxPoint x="460" y="10" as="sourcePoint" />
            <mxPoint x="425" y="398.5999999999998" as="targetPoint" />
            <Array as="points">
              <mxPoint x="430" y="170" />
              <mxPoint x="480" y="170" />
              <mxPoint x="480" y="399" />
              <mxPoint x="468" y="399" />
            </Array>
          </mxGeometry>
        </mxCell>
        <mxCell id="K7ECoLbRDUBTK7f3nJPs-14" value="6.Send Emails" style="edgeLabel;html=1;align=center;verticalAlign=middle;resizable=0;points=[];fontSize=12;" vertex="1" connectable="0" parent="K7ECoLbRDUBTK7f3nJPs-13">
          <mxGeometry x="0.3542" y="2" relative="1" as="geometry">
            <mxPoint as="offset" />
          </mxGeometry>
        </mxCell>
        <mxCell id="K7ECoLbRDUBTK7f3nJPs-20" style="edgeStyle=none;curved=1;rounded=0;orthogonalLoop=1;jettySize=auto;html=1;entryX=0;entryY=0;entryDx=0;entryDy=0;fontSize=12;shape=link;fillColor=#fad9d5;strokeColor=#ae4132;" edge="1" parent="1" source="rfiSgZxfOolpitJeeGe8-6" target="rfiSgZxfOolpitJeeGe8-5">
          <mxGeometry relative="1" as="geometry">
            <Array as="points">
              <mxPoint x="6" y="60" />
            </Array>
          </mxGeometry>
        </mxCell>
        <mxCell id="K7ECoLbRDUBTK7f3nJPs-21" value="8.Send Response Action" style="edgeLabel;html=1;align=center;verticalAlign=middle;resizable=0;points=[];fontSize=12;" vertex="1" connectable="0" parent="K7ECoLbRDUBTK7f3nJPs-20">
          <mxGeometry x="0.5767" y="-2" relative="1" as="geometry">
            <mxPoint y="1" as="offset" />
          </mxGeometry>
        </mxCell>
        <mxCell id="rfiSgZxfOolpitJeeGe8-6" value="&lt;div style=&quot;text-align: start;&quot;&gt;&lt;font face=&quot;Times&quot; color=&quot;#ffffff&quot;&gt;&lt;span style=&quot;font-size: 15px; white-space: pre-wrap; background-color: rgb(0, 0, 0);&quot;&gt;Shuffle&lt;/span&gt;&lt;/font&gt;&lt;/div&gt;" style="image;aspect=fixed;perimeter=ellipsePerimeter;html=1;align=center;shadow=0;dashed=0;spacingTop=3;image=img/lib/active_directory/internet_cloud.svg;" parent="1" vertex="1">
          <mxGeometry x="352.5" y="20" width="115" height="72.45" as="geometry" />
        </mxCell>
        <mxCell id="K7ECoLbRDUBTK7f3nJPs-17" style="edgeStyle=none;curved=1;rounded=0;orthogonalLoop=1;jettySize=auto;html=1;entryX=0.5;entryY=1;entryDx=0;entryDy=0;fontSize=12;shape=link;fillColor=#fad9d5;strokeColor=#ae4132;" edge="1" parent="1" source="rfiSgZxfOolpitJeeGe8-10" target="rfiSgZxfOolpitJeeGe8-3">
          <mxGeometry relative="1" as="geometry">
            <Array as="points">
              <mxPoint x="500" y="550" />
              <mxPoint x="450" y="480" />
            </Array>
          </mxGeometry>
        </mxCell>
        <mxCell id="K7ECoLbRDUBTK7f3nJPs-18" value="8.Send Response Action" style="edgeLabel;html=1;align=center;verticalAlign=middle;resizable=0;points=[];fontSize=12;" vertex="1" connectable="0" parent="K7ECoLbRDUBTK7f3nJPs-17">
          <mxGeometry x="-0.1987" y="-3" relative="1" as="geometry">
            <mxPoint x="-1" as="offset" />
          </mxGeometry>
        </mxCell>
        <mxCell id="rfiSgZxfOolpitJeeGe8-10" value="SOC Analyst&lt;div&gt;&lt;br&gt;&lt;/div&gt;" style="fontColor=#0066CC;verticalAlign=top;verticalLabelPosition=bottom;labelPosition=center;align=center;html=1;outlineConnect=0;fillColor=#CCCCCC;strokeColor=#6881B3;gradientColor=none;gradientDirection=north;strokeWidth=2;shape=mxgraph.networks.pc;" parent="1" vertex="1">
          <mxGeometry x="650" y="540" width="100" height="70" as="geometry" />
        </mxCell>
        <mxCell id="rfiSgZxfOolpitJeeGe8-14" value="" style="endArrow=classic;startArrow=classic;html=1;rounded=0;shape=link;" parent="1" source="rfiSgZxfOolpitJeeGe8-1" target="rfiSgZxfOolpitJeeGe8-2" edge="1">
          <mxGeometry width="50" height="50" relative="1" as="geometry">
            <mxPoint x="-10" y="840" as="sourcePoint" />
            <mxPoint x="40" y="790" as="targetPoint" />
          </mxGeometry>
        </mxCell>
        <mxCell id="K7ECoLbRDUBTK7f3nJPs-5" value="1. Send Events" style="edgeLabel;html=1;align=center;verticalAlign=middle;resizable=0;points=[];fontSize=12;" vertex="1" connectable="0" parent="rfiSgZxfOolpitJeeGe8-14">
          <mxGeometry x="-0.1694" y="1" relative="1" as="geometry">
            <mxPoint as="offset" />
          </mxGeometry>
        </mxCell>
        <mxCell id="K7ECoLbRDUBTK7f3nJPs-30" value="" style="edgeStyle=none;curved=1;rounded=0;orthogonalLoop=1;jettySize=auto;html=1;fontSize=12;startSize=8;endSize=8;" edge="1" parent="1" source="K7ECoLbRDUBTK7f3nJPs-24" target="K7ECoLbRDUBTK7f3nJPs-25">
          <mxGeometry relative="1" as="geometry" />
        </mxCell>
        <mxCell id="K7ECoLbRDUBTK7f3nJPs-24" value="Windows 10&amp;nbsp;&lt;div&gt;Send Events&lt;/div&gt;" style="text;html=1;align=center;verticalAlign=middle;resizable=0;points=[];autosize=1;strokeColor=none;fillColor=none;fontSize=16;" vertex="1" parent="1">
          <mxGeometry x="-590" y="961" width="120" height="50" as="geometry" />
        </mxCell>
        <mxCell id="K7ECoLbRDUBTK7f3nJPs-31" value="" style="edgeStyle=none;curved=1;rounded=0;orthogonalLoop=1;jettySize=auto;html=1;fontSize=12;startSize=8;endSize=8;" edge="1" parent="1" source="K7ECoLbRDUBTK7f3nJPs-25" target="K7ECoLbRDUBTK7f3nJPs-26">
          <mxGeometry relative="1" as="geometry" />
        </mxCell>
        <mxCell id="K7ECoLbRDUBTK7f3nJPs-25" value="Wazuh Manager&amp;nbsp;&lt;div&gt;Trigger alerts &amp;amp; Perform response actions&lt;/div&gt;" style="text;html=1;align=center;verticalAlign=middle;resizable=0;points=[];autosize=1;strokeColor=none;fillColor=none;fontSize=16;" vertex="1" parent="1">
          <mxGeometry x="-330" y="961" width="320" height="50" as="geometry" />
        </mxCell>
        <mxCell id="K7ECoLbRDUBTK7f3nJPs-32" value="" style="edgeStyle=none;curved=1;rounded=0;orthogonalLoop=1;jettySize=auto;html=1;fontSize=12;startSize=8;endSize=8;" edge="1" parent="1" source="K7ECoLbRDUBTK7f3nJPs-26" target="K7ECoLbRDUBTK7f3nJPs-29">
          <mxGeometry relative="1" as="geometry" />
        </mxCell>
        <mxCell id="K7ECoLbRDUBTK7f3nJPs-36" style="edgeStyle=none;curved=1;rounded=0;orthogonalLoop=1;jettySize=auto;html=1;fontSize=12;startSize=8;endSize=8;" edge="1" parent="1" source="K7ECoLbRDUBTK7f3nJPs-26" target="K7ECoLbRDUBTK7f3nJPs-28">
          <mxGeometry relative="1" as="geometry" />
        </mxCell>
        <mxCell id="K7ECoLbRDUBTK7f3nJPs-37" style="edgeStyle=none;curved=1;rounded=0;orthogonalLoop=1;jettySize=auto;html=1;fontSize=12;startSize=8;endSize=8;" edge="1" parent="1" source="K7ECoLbRDUBTK7f3nJPs-26" target="K7ECoLbRDUBTK7f3nJPs-27">
          <mxGeometry relative="1" as="geometry" />
        </mxCell>
        <mxCell id="K7ECoLbRDUBTK7f3nJPs-26" value="Shuffle&lt;div&gt;Receive Wazuh Alerts &amp;amp; Send responsive actions&lt;/div&gt;" style="text;html=1;align=center;verticalAlign=middle;resizable=0;points=[];autosize=1;strokeColor=none;fillColor=none;fontSize=16;" vertex="1" parent="1">
          <mxGeometry x="70" y="961" width="370" height="50" as="geometry" />
        </mxCell>
        <mxCell id="K7ECoLbRDUBTK7f3nJPs-27" value="Email&lt;div&gt;Send email &amp;amp; responsive actions&lt;/div&gt;&lt;div&gt;&lt;br&gt;&lt;/div&gt;" style="text;html=1;align=center;verticalAlign=middle;resizable=0;points=[];autosize=1;strokeColor=none;fillColor=none;fontSize=16;" vertex="1" parent="1">
          <mxGeometry x="547.5" y="951" width="260" height="70" as="geometry" />
        </mxCell>
        <mxCell id="K7ECoLbRDUBTK7f3nJPs-28" value="TheHive&lt;div&gt;Create alert in case management&amp;nbsp;&lt;/div&gt;" style="text;html=1;align=center;verticalAlign=middle;resizable=0;points=[];autosize=1;strokeColor=none;fillColor=none;fontSize=16;" vertex="1" parent="1">
          <mxGeometry x="125" y="1110" width="260" height="50" as="geometry" />
        </mxCell>
        <mxCell id="K7ECoLbRDUBTK7f3nJPs-29" value="OSINT&lt;div&gt;Enrich IOCS&lt;/div&gt;" style="text;html=1;align=center;verticalAlign=middle;resizable=0;points=[];autosize=1;strokeColor=none;fillColor=none;fontSize=16;" vertex="1" parent="1">
          <mxGeometry x="200" y="860" width="110" height="50" as="geometry" />
        </mxCell>
      </root>
    </mxGraphModel>
  </diagram>
</mxfile>
